<?xml version="1.0" standalone="yes"?>
<svg xmlns="http://www.w3.org/2000/svg" width="1460" height="162">
<path style="fill:#fefefe; stroke:none;" d="M0 0L0 161L1460 161L1460 0L0 0z"/>
<path style="fill:#a3d8a8; stroke:none;" d="M470 4L470 5L480 5L480 47L481 16L479.972 5.60339L470 4M1311 4L1311 5L1315 5L1311 4z"/>
<path style="fill:#0bcb42; stroke:none;" d="M1268 128C1268 133.69 1265.68 145.994 1269.6 150.501C1274.69 156.347 1287.83 157.293 1295 158.41C1320.38 162.365 1356.98 159.641 1370.51 134C1373.38 128.561 1374.69 122.117 1374.96 116C1375.2 110.584 1374.88 105.262 1373.52 100C1364.37 64.4728 1322.3 79.4202 1302.1 58.9059C1292.96 49.6165 1296.97 35.9078 1308 30.3781C1317.17 25.7809 1328.18 26.6396 1338 28C1348.17 29.4095 1357.94 33.9914 1368 35C1368 29.3931 1370.15 18.2011 1366.97 13.419C1363.05 7.51642 1348.4 6.58986 1342 5.59027C1316.73 1.6411 1284.42 4.11859 1272.87 31C1270.45 36.6302 1269.15 42.8744 1269.01 49C1268.9 53.9847 1269.36 59.1997 1270.78 64C1280.87 98.0827 1321.99 83.1617 1341.9 103.105C1350.6 111.822 1346.64 124.639 1337 130.867C1325.81 138.091 1311.55 136.943 1299 135.914C1288.11 135.021 1278.55 129.816 1268 128z"/>
<path style="fill:#a3d8a8; stroke:none;" d="M1332 4L1332 5L1337 5L1332 4z"/>
<path style="fill:#ed0833; stroke:none;" d="M343 11L348.941 28.0046L348.999 132L343 152L392 152L392 141C385.48 139.109 386 133.858 386 128L386 95L434.981 95.1481L451 101L451 59L434.957 64.8519L386 65L386 41L462.995 41.0586L480 47L480 5L461.999 10.9807L343 11z"/>
<path style="fill:#a3d8a8; stroke:none;" d="M1305.67 5.33333L1306.33 5.66667L1305.67 5.33333M1341 5L1341 6L1344 6L1341 5M469 6L470 7L469 6M503 7L503 8L532 7C525.012 4.06778 510.219 4.8663 503 7M617 6L617 7L645 7L617 6M666 6L666 7L763 7L763 30C764.668 26.0251 766.143 9.9951 762.397 7.02779C757.709 3.31549 742.846 6 737 6L666 6M797 6L797 7L827 8C820.479 3.0594 805.043 6 797 6M901 6L901 7L928 7L928 157C931.908 147.688 929 132.109 929 122L929 43L929 18C929 15.0897 929.912 10.0521 927.972 7.60339C924.438 3.14124 906.424 6 901 6M964 6L964 7L1006 7C995.012 2.38934 975.957 6 964 6M1166 7L1166 8L1193 8C1187.47 3.80768 1172.49 5.08157 1166 7M1301.67 6.33333L1302.33 6.66667L1301.67 6.33333M1347.67 6.33333L1348.33 6.66667L1347.67 6.33333z"/>
<path style="fill:#0bcb42; stroke:none;" d="M504 7C512.194 42.4034 531.22 76.967 543.95 111C547.834 121.385 551.893 131.701 556 142C557.631 146.091 558.749 152.239 561.969 155.397C566.33 159.673 581.16 157 587 157L645 7L616 7L593.053 69L574 120L533 7L504 7M666 7L666 157L767 157L767 134L693 134L693 104L694.603 92.6034L710 91L753 91L753 69L693 69L693 30L763 30L763 7L666 7M797 7L797 157L824 157L823 46L824 46C837.183 74.2043 858.716 99.7494 876.709 125C882.987 133.81 890.321 150.193 899.515 155.972C905.727 159.878 920.749 157 928 157L928 7L901 7L902 117C882.826 91.8712 866.596 63.7999 848.14 38C842.202 29.6985 834.725 13.0901 825.816 8.02779C819.095 4.2092 804.64 7 797 7M964 7L964 157C997.444 157 1037.1 161.163 1066 140.791C1107.06 111.855 1100.44 40.1805 1057 17.3202C1029.25 2.71503 994.248 7 964 7z"/>
<path style="fill:#a3d8a8; stroke:none;" d="M1017 7L1017 8L1022 8L1017 7z"/>
<path style="fill:#0bcb42; stroke:none;" d="M1108 157L1137 157C1139.55 147.678 1144.43 127.117 1151.65 120.603C1154.76 117.799 1161.14 119 1165 119L1194 119C1197.78 119 1203.4 117.998 1206.78 120.028C1217.08 126.226 1214.43 147.181 1222.82 155.397C1227.52 160.006 1244.65 157 1251 157C1249.23 146.749 1243.56 136.683 1239.81 127C1231.52 105.603 1222.58 84.4461 1214.42 63C1208.29 46.8618 1203.2 23.0573 1192.78 9.3179C1189.61 5.14273 1173.86 5.95645 1169.13 7.3179C1165.25 8.43661 1164.32 13.7005 1163 17L1152.6 43C1142.88 67.3115 1133.33 91.6877 1123.6 116C1118.28 129.296 1111.3 143.062 1108 157z"/>
<path style="fill:#a3d8a8; stroke:none;" d="M1298.67 7.33333L1299.33 7.66667L1298.67 7.33333M1352.67 7.33333L1353.33 7.66667L1352.67 7.33333M571 8L571 9L576 9L571 8M615.333 8.66667L615.667 9.33333L615.333 8.66667M1027 8L1027 9L1030 9L1027 8M1296 8L1297 9L1296 8M1356 8L1357 9L1356 8M468 9L469 10L468 9M504.333 9.66667L504.667 10.3333L504.333 9.66667M533 9L534 10L533 9M558.667 9.33333L559.333 9.66667L558.667 9.33333z"/>
<path style="fill:#ed0833; stroke:none;" d="M536 15L547 47C568.466 39.2001 580.115 39.2489 601 49C603.266 42.0374 613.781 24.2787 611.292 17.4182C609.617 12.7997 598.144 11.533 594 10.6651C574.763 6.63641 554.494 8.98416 536 15z"/>
<path style="fill:#a3d8a8; stroke:none;" d="M586.667 9.33333L587.333 9.66667L586.667 9.33333M644 9L645 10L644 9M1033.67 9.33333L1034.33 9.66667L1033.67 9.33333M1193.33 9.66667L1193.67 10.3333L1193.33 9.66667M1293 9L1294 10L1293 9M1359.67 9.33333L1360.33 9.66667L1359.67 9.33333M88 10L88 11L137 11L136 22C138.248 19.0321 139.724 11.7645 134.852 10.3179C121.555 6.37021 101.906 10 88 10M161 10L161 11L214 11L197 10L161 10M272 10L272 11L319 11L319 21C320.189 18.1661 321.169 12.3191 317.682 10.6034C314.101 8.84128 307.904 10 304 10L272 10M343 10L343 11L468 11C457.973 6.79231 440.896 10 430 10L343 10M551.667 10.3333L552.333 10.6667L551.667 10.3333M593 10L594 11L593 10M828 10L829 11L828 10M1038.67 10.3333L1039.33 10.6667L1038.67 10.3333M1165 10L1166 11L1165 10M1291 10L1292 11L1291 10M1362.67 10.3333L1363.33 10.6667L1362.67 10.3333z"/>
<path style="fill:#ed0833; stroke:none;" d="M88 11L93.9414 28.0046L93.9992 132L88 152L137 152L137 141C126.963 138.088 131 117.466 131 109C131 82.3429 128.706 54.5465 131.059 28.0046C131.644 21.401 136.999 18.8587 137 11L88 11M161 11L166.941 28.0046L166.999 132L161 152L208 152L202.059 133.999L202 68L222 88L273 141L269 141L269 152L319 152L313.059 133.999L313.001 31L319 11L272 11L277.941 28.0046L278 93C255.782 70.7815 229.082 47.6931 211 22C215.889 20.0346 214.999 15.6398 215 11L161 11z"/>
<path style="fill:#a3d8a8; stroke:none;" d="M534 11L535 12L534 11M547 11L548 12L547 11M597.667 11.3333L598.333 11.6667L597.667 11.3333M614 11L615 12L614 11M643 11L644 12L643 11M1042 11L1043 12L1042 11M1290 11L1291 12L1290 11M1365 11L1366 12L1365 11M505 12L506 13L505 12M543 12L544 13L543 12M601 12L602 13L601 12M1045 12L1046 13L1045 12M1164.33 12.6667L1164.67 13.3333L1164.33 12.6667M1194 12L1195 13L1194 12M1288 12L1289 13L1288 12M1367 12L1368 13L1367 12M540 13L541 14L540 13M830 13L831 14L830 13M1048 13L1049 14L1048 13M535 14L536 15L535 14M537 14L538 15L537 14M607 14L608 15L607 14M613 14L614 15L613 14M642 14L643 15L642 14M831 14L832 15L831 14M1050 14L1051 15L1050 14M1195.33 14.6667L1195.67 15.3333L1195.33 14.6667M1285 14L1286 15L1285 14M506 15L507 16L506 15M610 15L611 16L610 15M1053 15L1054 16L1053 15M1163 15L1164 16L1163 15M1284 15L1285 16L1284 15M612 16L613 17L612 16M641 16L642 17L641 16M1055 16L1056 17L1055 16M507 17L508 18L507 17M833 17L834 18L833 17M1057 17L1058 18L1057 17M1162.33 17.6667L1162.67 18.3333L1162.33 17.6667M1196 17L1197 18L1196 17M640 19L641 20L640 19M1060 19L1061 20L1060 19M508 20L509 21L508 20M835 20L836 21L835 20M1062 20L1063 21L1062 20M1161 20L1162 21L1161 20M1197 20L1198 21L1197 20M89 21L90 22L89 21M162 21L163 22L162 21M213 21L214 22L213 21M273 21L274 22L273 21M317 21L318 22L317 21M344 21L345 22L344 21M639.333 21.6667L639.667 22.3333L639.333 21.6667M836 21L837 22L836 21M1278 21L1279 22L1278 21M92 22L93 23L92 22M132 22L133 23L132 22M165 22L166 23L165 22M276 22L277 23L276 22M314 22L315 23L314 22M347 22L348 23L347 22M509 22L510 23L509 22M1065 22L1066 23L1065 22M1160.33 22.6667L1160.67 23.3333L1160.33 22.6667M1198 22L1199 23L1198 22M1277 22L1278 23L1277 22M131 23L131 139L132 139L132 58L131 23M313 23L313 139L314 139L314 58L313 23M837 23L838 24L837 23M1066 23L1067 24L1066 23M638 24L639 25L638 24M838 24L839 25L838 24M510 25L511 26L510 25M1069 25L1070 26L1069 25M1159 25L1160 26L1159 25M1199 25L1200 26L1199 25M1275 25L1276 26L1275 25M1070 26L1071 27L1070 26M511.333 27.6667L511.667 28.3333L511.333 27.6667M637 27L638 28L637 27M840 27L841 28L840 27M1071 27L1072 28L1071 27M1158.33 27.6667L1158.67 28.3333L1158.33 27.6667M1200 27L1201 28L1200 27M1274 27L1275 28L1274 27M1317 27L1317 28L1323 28L1317 27M1327 27L1327 28L1335 28L1327 27M841 28L842 29L841 28M1072 28L1073 29L1072 28M1312.67 28.3333L1313.33 28.6667L1312.67 28.3333M1339 28L1339 29L1342 29L1339 28M636 29L637 30L636 29M1073 29L1074 30L1073 29M1273 29L1274 30L1273 29M1309 29L1310 30L1309 29M1345.67 29.3333L1346.33 29.6667L1345.67 29.3333M512 30L509 34L512 30M607 30L608 31L607 30M693 30L693 69L753 69L753 68L694 68C694 57.0895 697.211 40.0358 693 30M842 30L843 31L842 30M991 30L991 134L992 134L992 62L991 30z"/>
<path style="fill:#fefefe; stroke:none;" d="M992 30L992 134C1009.63 134 1030.82 134.565 1046 124.095C1070.86 106.95 1071.85 59.9921 1048 41.5293C1032.1 29.2158 1011 30 992 30z"/>
<path style="fill:#a3d8a8; stroke:none;" d="M1015 30L1015 31L1020 31L1015 30M1074 30L1075 31L1074 30M1157 30L1158 31L1157 30M1201 30L1202 31L1201 30M1307 30L1308 31L1307 30M1350.67 30.3333L1351.33 30.6667L1350.67 30.3333z"/>
<path style="fill:#ed0833; stroke:none;" d="M512 31C471.177 73.6839 498.347 151.727 560 153C557.1 140.763 551.639 126.032 545.583 115C541.785 108.081 535.6 103.723 532.866 96C530.294 88.7371 531.124 81.3157 529.471 74C526.62 61.3803 519.781 41.2919 512 31z"/>
<path style="fill:#a3d8a8; stroke:none;" d="M843 31L844 32L843 31M1023 31L1023 32L1026 32L1023 31M1075 31L1076 32L1075 31M1272 31L1273 32L1272 31M1305 31L1306 32L1305 31M1354 31L1355 32L1354 31M219 32L220 33L219 32M635 32L637 35L635 32M1028.67 32.3333L1029.33 32.6667L1028.67 32.3333M1076 32L1077 33L1076 32M1156.33 32.6667L1156.67 33.3333L1156.33 32.6667M1202 32L1203 33L1202 32M1357.67 32.3333L1358.33 32.6667L1357.67 32.3333M220 33L221 34L220 33M1032 33L1033 34L1032 33M1077 33L1078 34L1077 33M1271.33 33.6667L1271.67 34.3333L1271.33 33.6667M1302 33L1303 34L1302 33M1360.67 33.3333L1361.33 33.6667L1360.67 33.3333M221 34L222 35L221 34z"/>
<path style="fill:#ed0833; stroke:none;" d="M635 34L612.3 96L588 153C630.444 147.519 659.271 110.67 652.079 68C650.031 55.8458 645.082 41.7337 635 34z"/>
<path style="fill:#a3d8a8; stroke:none;" d="M845 34L846 35L845 34M1035 34L1036 35L1035 34M1301 34L1302 35L1301 34M1363 34L1364 35L1363 34M222 35L223 36L222 35M514 35L515 36L514 35M1037 35L1038 36L1037 35M1155 35L1156 36L1155 35M1203 35L1204 36L1203 35M1300 35L1301 36L1300 35M1366.67 35.3333L1367.33 35.6667L1366.67 35.3333M223 36L224 37L223 36M1039 36L1040 37L1039 36M1079 36L1080 37L1079 36M1270.33 36.6667L1270.67 37.3333L1270.33 36.6667M224 37L225 38L224 37M506 37L507 38L506 37M847 37L848 38L847 37M1041 37L1042 38L1041 37M1080 37L1081 38L1080 37M1204 37L1205 38L1204 37M225 38L226 39L225 38M505 38L506 39L505 38M604 38L605 39L604 38M639 38L640 39L639 38M848 38L849 39L848 38M1043 38L1044 39L1043 38M1154 38L1155 39L1154 38M1298.33 38.6667L1298.67 39.3333L1298.33 38.6667M226 39L227 40L226 39M640 39L641 40L640 39M565 40L565 41L568 41L565 40z"/>
<path style="fill:#fefefe; stroke:none;" d="M548 47L574 120C583.051 105.616 587.083 85.0052 593.05 69C594.873 64.1116 600.248 55.3688 599.071 50.1049C598.087 45.7049 590.716 43.5674 587 42.3596C573.941 38.1148 559.738 40.1745 548 47z"/>
<path style="fill:#a3d8a8; stroke:none;" d="M577 40L577 41L580 41L577 40M1046 40L1047 41L1046 40M1082 40L1083 41L1082 40M1153 40L1154 41L1153 40M1205 40L1206 41L1205 40M386 41L386 65L439 65L439 64L387 64L386 41M503 41L504 42L503 41M545 41L546 42L545 41M560 41L561 42L560 41M584 41L585 42L584 41M850 41L851 42L850 41M1269 41L1269 44L1270 44L1269 41M1297.33 41.6667L1297.67 42.3333L1297.33 41.6667M468 42L469 43L468 42M557 42L558 43L557 42M587 42L588 43L587 42M642 42L643 43L642 42M1083 42L1084 43L1083 42M1206 42L1207 43L1206 42M554 43L555 44L554 43M590 43L591 44L590 43M1050 43L1051 44L1050 43M1152 43L1153 44L1152 43M1179 43L1181 45L1179 43M552 44L553 45L552 44M592 44L593 45L592 44M852 44L853 45L852 44M1051 44L1052 45L1051 44M1084 44L1085 45L1084 44z"/>
<path style="fill:#fefefe; stroke:none;" d="M1179 44L1161 95L1198 95L1186.34 62L1179 44z"/>
<path style="fill:#a3d8a8; stroke:none;" d="M469 45L470 46L469 45M550 45L551 46L550 45M594 45L595 46L594 45M853 45L854 46L853 45M1052 45L1053 46L1052 45M1151 45L1152 46L1151 45M1178.33 45.6667L1178.67 46.3333L1178.33 45.6667M1207 45L1208 46L1207 45M500 46L501 47L500 46M596 46L597 47L596 46M823 46L823 58L824 58L823 46M1053 46L1054 47L1053 46M645 47L646 48L645 47z"/>
<path style="fill:#fefefe; stroke:none;" d="M823 47L824 48L823 47z"/>
<path style="fill:#a3d8a8; stroke:none;" d="M854 47L855 48L854 47M1086.33 47.6667L1086.67 48.3333L1086.33 47.6667M1181 47L1182 48L1181 47M1208 47L1209 48L1208 47M499 48L500 49L499 48M599 48L600 49L599 48M855 48L856 49L855 48M1150 48L1151 49L1150 48M1177.33 48.6667L1177.67 49.3333L1177.33 48.6667M548 49L549 50L548 49M600 49L601 50L600 49M646 49L647 50L646 49M825 49L826 50L825 49M1055 49L1056 50L1055 49M498 50L499 51L498 50M826 50L827 51L826 50M1056 50L1057 51L1056 50M1087 50L1088 51L1087 50M1149 50L1150 51L1149 50M1182 50L1183 51L1182 50M1209 50L1210 51L1209 50M549.333 51.6667L549.667 52.3333L549.333 51.6667M599 51L600 52L599 51M857 51L858 52L857 51M1176 51L1177 52L1176 51M1297.33 51.6667L1297.67 52.3333L1297.33 51.6667M827 52L828 53L827 52M1088.33 52.6667L1088.67 53.3333L1088.33 52.6667M1210 52L1211 53L1210 52M1058 53L1059 54L1058 53M1148 53L1149 54L1148 53M1183 53L1184 54L1183 53M550 54L551 55L550 54M598 54L599 55L598 54M648 54L649 55L648 54M828 54L829 55L828 54M859 54L860 55L859 54M1175 54L1176 55L1175 54M1298 54L1299 55L1298 54M496 55L497 56L496 55M829 55L830 56L829 55M860 55L861 56L860 55M1059 55L1060 56L1059 55M1089.33 55.6667L1089.67 56.3333L1089.33 55.6667M1147 55L1148 56L1147 55M1211 55L1212 56L1211 55M242 56L243 57L242 56M1184 56L1185 57L1184 56M1299 56L1300 57L1299 56M243 57L244 58L243 57M551 57L552 58L551 57M597 57L598 58L597 57M649 57L650 58L649 57M830 57L831 58L830 57M1060 57L1061 58L1060 57M1174 57L1175 58L1174 57M1212 57L1213 58L1212 57M1269 57L1269 60L1270 60L1269 57M244 58L245 59L244 58M441 58L441 59L451 59L441 58M495 58L496 59L495 58M523 58L524 59L523 58M862 58L863 59L862 58M1090.33 58.6667L1090.67 59.3333L1090.33 58.6667M1146 58L1147 59L1146 58M245 59L246 60L245 59M451 59L451 101L452 101C452 89.0427 455.611 69.9878 451 59M552.333 59.6667L552.667 60.3333L552.333 59.6667M596 59L597 60L596 59M1185 59L1186 60L1185 59M246 60L247 61L246 60M440 60L441 61L440 60M650 60L651 61L650 60M832 60L833 61L832 60M1061 60L1062 61L1061 60M1145 60L1146 61L1145 60M1173 60L1174 61L1173 60M1213 60L1214 61L1213 60M247 61L248 62L247 61M494 61L495 62L494 61M864 61L865 62L864 61M1304 61L1305 62L1304 61M248 62L249 63L248 62M553 62L554 63L553 62M595 62L596 63L595 62M833 62L834 63L833 62M865 62L866 63L865 62M1091 62L1091 65L1092 65L1091 62M1186 62L1187 63L1186 62M1214.33 62.6667L1214.67 63.3333L1214.33 62.6667M249 63L250 64L249 63M1062 63L1063 64L1062 63M1144 63L1145 64L1144 63M1172 63L1173 64L1172 63M1270 63L1271 64L1270 63M1307 63L1308 64L1307 63M651 64L652 65L651 64M866 64L867 65L866 64M1187.33 64.6667L1187.67 65.3333L1187.33 64.6667M1310 64L1311 65L1310 64M493 65L494 66L493 65M554 65L555 66L554 65M594 65L595 66L594 65M835 65L836 66L835 65M867 65L868 66L867 65M1143 65L1144 66L1143 65M1171.33 65.6667L1171.67 66.3333L1171.33 65.6667M1215 65L1216 66L1215 65M1312 65L1313 66L1312 65M1063.33 66.6667L1063.67 67.3333L1063.33 66.6667M1271 66L1272 67L1271 66M1315.67 66.3333L1316.33 66.6667L1315.67 66.3333M593 67L594 68L593 67M1188 67L1189 68L1188 67M1216.33 67.6667L1216.67 68.3333L1216.33 67.6667M1319.67 67.3333L1320.33 67.6667L1319.67 67.3333M202 68L202 139L203 139C203 116.726 198.842 89.6634 204 68L202 68M555 68L556 69L555 68M837 68L838 69L837 68M869 68L870 69L869 68M1092 68L1092 72L1093 72L1092 68M1142 68L1143 69L1142 68M1170.33 68.6667L1170.67 69.3333L1170.33 68.6667M1272 68L1273 69L1272 68M1323 68L1323 69L1326 69L1323 68M204 69L205 70L204 69M652.333 69.6667L652.667 70.3333L652.333 69.6667M753 69L753 91L694 91L694 92L754 92L753 69M870 69L871 70L870 69M1328.67 69.3333L1329.33 69.6667L1328.67 69.3333M205 70L206 71L205 70M556 70L557 71L556 70M592 70L593 71L592 70M620 70L621 71L620 70M838 70L839 71L838 70M1141 70L1142 71L1141 70M1189 70L1190 71L1189 70M1217 70L1218 71L1217 70M1273 70L1274 71L1273 70M1332.67 70.3333L1333.33 70.6667L1332.67 70.3333M206 71L207 72L206 71M492.333 71.6667L492.667 72.3333L492.333 71.6667M839 71L840 72L839 71M871 71L872 72L871 71M1169 71L1170 72L1169 71M1336.67 71.3333L1337.33 71.6667L1336.67 71.3333M207 72L208 73L207 72M872 72L873 73L872 72M1064 72L1064 76L1065 76L1064 72M1218.33 72.6667L1218.67 73.3333L1218.33 72.6667M1274 72L1275 73L1274 72M1340.67 72.3333L1341.33 72.6667L1340.67 72.3333M208 73L209 74L208 73M557 73L558 74L557 73M591 73L592 74L591 73M824 73L824 157L825 157L825 99L824 73M840 73L841 74L840 73M1140 73L1141 74L1140 73M1190 73L1191 74L1190 73M1275 73L1276 74L1275 73M1344 73L1345 74L1344 73M209 74L210 75L209 74M841 74L842 75L841 74M1168 74L1169 75L1168 74M1347 74L1348 75L1347 74M210 75L211 76L210 75M590.333 75.6667L590.667 76.3333L590.333 75.6667M874 75L875 76L874 75M1139.33 75.6667L1139.67 76.3333L1139.33 75.6667M1191.33 75.6667L1191.67 76.3333L1191.33 75.6667M1219 75L1220 76L1219 75M1350 75L1351 76L1350 75M530 76L530 86L531 86L530 76M558 76L559 77L558 76M842 76L843 77L842 76M1167.33 76.6667L1167.67 77.3333L1167.33 76.6667M1352 76L1353 77L1352 76M843 77L844 78L843 77M1220.33 77.6667L1220.67 78.3333L1220.33 77.6667M1278 77L1279 78L1278 77M1354 77L1355 78L1354 77M559.333 78.6667L559.667 79.3333L559.333 78.6667M589 78L590 79L589 78M876 78L877 79L876 78M1138 78L1139 79L1138 78M1192 78L1193 79L1192 78M1279 78L1280 79L1279 78M1356 78L1357 79L1356 78M264 79L265 80L264 79M653 79L653 84L654 84L653 79M844 79L845 80L844 79M877 79L878 80L877 79M1166 79L1167 80L1166 79M1358 79L1359 80L1358 79M265 80L266 81L265 80z"/>
<path style="fill:#fefefe; stroke:none;" d="M531 80C531 92.2663 533.404 104.373 544 112L531 80z"/>
<path style="fill:#a3d8a8; stroke:none;" d="M845 80L846 81L845 80M1137.33 80.6667L1137.67 81.3333L1137.33 80.6667M1221 80L1222 81L1221 80M1359 80L1360 81L1359 80M266 81L267 82L266 81M532 81L533 82L532 81M560 81L561 82L560 81M588 81L589 82L588 81M878 81L879 82L878 81M1093 81L1094 82L1093 81M1193 81L1194 82L1193 81M1283 81L1284 82L1283 81M267 82L268 83L267 82M846 82L847 83L846 82M879 82L880 83L879 82M1165 82L1166 83L1165 82M1222.33 82.6667L1222.67 83.3333L1222.33 82.6667M1362 82L1363 83L1362 82M268 83L269 84L268 83M587.333 83.6667L587.667 84.3333L587.333 83.6667M847 83L848 84L847 83M1136 83L1137 84L1136 83M1194 83L1195 84L1194 83M1286 83L1287 84L1286 83M1363 83L1364 84L1363 83M269 84L270 85L269 84M533 84L534 85L533 84M561 84L562 85L561 84M1164 84L1165 85L1164 84M1288 84L1289 85L1288 84M1364 84L1365 85L1364 84M270 85L271 86L270 85M614 85L614 88L615 88L614 85M881 85L882 86L881 85M1135.33 85.6667L1135.67 86.3333L1135.33 85.6667M1223 85L1224 86L1223 85M1290 85L1291 86L1290 85M1365 85L1366 86L1365 85M271 86L272 87L271 86M534 86L535 87L534 86M562.333 86.6667L562.667 87.3333L562.333 86.6667M586 86L587 87L586 86M849 86L850 87L849 86M1064 86L1064 91L1065 91L1064 86M1195 86L1196 87L1195 86M1292 86L1293 87L1292 86M1366 86L1367 87L1366 86M850 87L851 88L850 87M1163 87L1164 88L1163 87M1294.67 87.3333L1295.33 87.6667L1294.67 87.3333M1367 87L1368 88L1367 87M613 88L614 89L613 88M883 88L884 89L883 88M1134 88L1135 89L1134 88M1196.33 88.6667L1196.67 89.3333L1196.33 88.6667M1224 88L1225 89L1224 88M1297.67 88.3333L1298.33 88.6667L1297.67 88.3333M492 89L492 92L493 92L492 89M535 89L536 90L535 89M563 89L564 90L563 89M585 89L586 90L585 89z"/>
<path style="fill:#fefefe; stroke:none;" d="M613 89L607 105L608 105C610.584 100.556 614.542 94.2159 613 89z"/>
<path style="fill:#a3d8a8; stroke:none;" d="M851 89L852 90L851 89M1162.33 89.6667L1162.67 90.3333L1162.33 89.6667M1301 89L1302 90L1301 89M612.333 90.6667L612.667 91.3333L612.333 90.6667M852 90L853 91L852 90M1133.33 90.6667L1133.67 91.3333L1133.33 90.6667M1225 90L1226 91L1225 90M1304.67 90.3333L1305.33 90.6667L1304.67 90.3333M1369 90L1370 91L1369 90M531 91L532 92L531 91M536.333 91.6667L536.667 92.3333L536.333 91.6667M885 91L886 92L885 91M1197 91L1198 92L1197 91M1308.67 91.3333L1309.33 91.6667L1308.67 91.3333M564 92L565 93L564 92M584 92L585 93L584 92M613 92L614 93L613 92M693 92L693 134L694 134C694 122.043 697.611 102.988 693 92M1092 92L1092 95L1093 95L1092 92M1161 92L1162 93L1161 92M1312.67 92.3333L1313.33 92.6667L1312.67 92.3333M611 93L612 94L611 93M652 93L653 94L652 93M854 93L855 94L854 93M1132 93L1133 94L1132 93M1226 93L1227 94L1226 93M1317.67 93.3333L1318.33 93.6667L1317.67 93.3333M1371 93L1372 94L1371 93M228 94L229 95L228 94M537 94L538 95L537 94M583.333 94.6667L583.667 95.3333L583.333 94.6667M887 94L888 95L887 94M1198 94L1160 95L1160 96L1189 96L1198 94M1321.67 94.3333L1322.33 94.6667L1321.67 94.3333M229 95L230 96L229 95M386 95L386 139L387 139C387 126.52 390.81 106.463 386 95M532 95L533 96L532 95M565 95L566 96L565 95M612 95L613 96L612 95M1063.33 95.6667L1063.67 96.3333L1063.33 95.6667M1131.33 95.6667L1131.67 96.3333L1131.33 95.6667M1227 95L1228 96L1227 95M1326.67 95.3333L1327.33 95.6667L1326.67 95.3333M230 96L231 97L230 96M439 96L440 97L439 96M493 96L494 97L493 96M538.333 96.6667L538.667 97.3333L538.333 96.6667M610 96L611 97L610 96M856 96L857 97L856 96M901 96L901 108L902 108L901 96M1329.67 96.3333L1330.33 96.6667L1329.67 96.3333M1372 96L1373 97L1372 96M231 97L232 98L231 97M566.333 97.6667L566.667 98.3333L566.333 97.6667M582 97L583 98L582 97M857 97L858 98L857 97M889 97L890 98L889 97M1332.67 97.3333L1333.33 97.6667L1332.67 97.3333M232 98L233 99L232 98M609 98L610 99L609 98M611 98L612 99L611 98M651 98L652 99L651 98M1130 98L1131 99L1130 98M1228 98L1229 99L1228 98M1335 98L1336 99L1335 98M1373.33 98.6667L1373.67 99.3333L1373.33 98.6667M233 99L234 100L233 99M440 99L441 100L440 99M539 99L540 100L539 99M890 99L891 100L890 99M1091.33 99.6667L1091.67 100.333L1091.33 99.6667M1337 99L1338 100L1337 99M234 100L235 101L234 100M494 100L495 101L494 100M534 100L535 101L534 100M567 100L568 101L567 100M581 100L582 101L581 100M610 100L611 101L610 100M859 100L860 101L859 100M891 100L892 101L891 100M1062 100L1063 101L1062 100M1229 100L1230 101L1229 100M1339 100L1340 101L1339 100M235 101L236 102L235 101M608 101L609 102L608 101M1129 101L1130 102L1129 101M1340 101L1341 102L1340 101M236 102L237 103L236 102M535 102L536 103L535 102M540 102L541 103L540 102M609 102L610 103L609 102M650 102L651 103L650 102M892 102L893 103L892 102M1374 102L1374 105L1375 105L1374 102M237 103L238 104L237 103M568 103L569 104L568 103M580 103L581 104L580 103M607 103L608 104L607 103M861 103L862 104L861 103M1061 103L1062 104L1061 103M1090.33 103.667L1090.67 104.333L1090.33 103.667M1128 103L1129 104L1128 103M1230 103L1231 104L1230 103M495 104L496 105L495 104M541 104L542 105L541 104M862 104L863 105L862 104M537 105L538 106L537 105M579.333 105.667L579.667 106.333L579.333 105.667M607 105L608 106L607 105M649 105L650 106L649 105M894 105L895 106L894 105M1231 105L1232 106L1231 105M1344 105L1345 106L1344 105M569 106L570 107L569 106M606 106L607 107L606 106M863 106L864 107L863 106M1060 106L1061 107L1060 106M1127 106L1128 107L1127 106M542 107L543 108L542 107M864 107L865 108L864 107M895 107L896 108L895 107M1089.33 107.667L1089.67 108.333L1089.33 107.667M1345 107L1346 108L1345 107M578.333 108.667L578.667 109.333L578.333 108.667M896 108L897 109L896 108M1059 108L1060 109L1059 108M1126 108L1127 109L1126 108M1232 108L1233 109L1232 108M497 109L498 110L497 109M543 109L544 110L543 109M570 109L571 110L570 109M1346 109L1346 113L1347 113L1346 109M647 110L648 111L647 110M866 110L867 111L866 110M897 110L898 111L897 110M1058 110L1059 111L1058 110M1088 110L1089 111L1088 110M1233 110L1234 111L1233 110M498 111L499 112L498 111M577.333 111.667L577.667 112.333L577.333 111.667M1125 111L1126 112L1125 111M544 112L545 113L544 112M571 112L572 113L571 112M646 112L647 113L646 112M898 112L899 113L898 112M868 113L869 114L868 113M899 113L900 114L899 113M1056 113L1057 114L1056 113M1087 113L1088 114L1087 113M1124 113L1125 114L1124 113M1234 113L1235 114L1234 113M572.333 114.667L572.667 115.333L572.333 114.667M576 114L577 115L576 114M645 114L646 115L645 114M869 114L870 115L869 114M900 115L901 116L900 115M1086 115L1087 116L1086 115M1235 115L1236 116L1235 115M1346 115L1346 119L1347 119L1346 115M602 116L603 117L602 116M644 116L645 117L644 116M1054 116L1055 117L1054 116M1123 116L1124 117L1123 116M501 117L502 118L501 117M573.333 117.667L573.667 118.333L573.333 117.667M575 117L576 118L575 117M871 117L872 118L871 117M1053 117L1054 118L1053 117M1085 117L1086 118L1085 117M1052 118L1053 119L1052 118M1122 118L1123 119L1122 118M1236 118L1237 119L1236 118M502 119L503 120L502 119M642 119L643 120L642 119M1051 119L1052 120L1051 119M1084 119L1085 120L1084 119M873 120L874 121L873 120M1050 120L1051 121L1050 120M1208 120L1209 121L1208 120M1237 120L1238 121L1237 120M1374 120L1374 123L1375 123L1374 120M874 121L875 122L874 121M1049 121L1050 122L1049 121M1083 121L1084 122L1083 121M1121 121L1122 122L1121 121M1150 121L1151 122L1150 121M1345 121L1346 122L1345 121M255 122L256 123L255 122M504 122L505 123L504 122M548 122L549 123L548 122M1048 122L1049 123L1048 122M1209 122L1210 123L1209 122M256 123L257 124L256 123M875 123L876 124L875 123M1082 123L1083 124L1082 123M1120 123L1121 124L1120 123M1149 123L1150 124L1149 123M1238 123L1239 124L1238 123M1344 123L1345 124L1344 123M257 124L258 125L257 124M876 124L877 125L876 124M1045 124L1046 125L1045 124M1081 124L1082 125L1081 124M258 125L259 126L258 125M638 125L639 126L638 125M1043 125L1044 126L1043 125M1210 125L1211 126L1210 125M1239.33 125.667L1239.67 126.333L1239.33 125.667M259 126L260 127L259 126M507 126L508 127L507 126M1119 126L1120 127L1119 126M1148 126L1149 127L1148 126M1342 126L1343 127L1342 126M1373 126L1374 127L1373 126M260 127L261 128L260 127M508 127L509 128L508 127M878 127L879 128L878 127M1040 127L1041 128L1040 127M1079 127L1080 128L1079 127M1211.33 127.667L1211.67 128.333L1211.33 127.667M1268 127L1269 128L1268 127M1341 127L1342 128L1341 127M261 128L262 129L261 128M879 128L880 129L879 128M1037 128L1038 129L1037 128M1118 128L1119 129L1118 128M1147.33 128.667L1147.67 129.333L1147.33 128.667M1240 128L1241 129L1240 128M1271 128L1272 129L1271 128M1340 128L1341 129L1340 128M262 129L263 130L262 129M1034.67 129.333L1035.33 129.667L1034.67 129.333M1273 129L1274 130L1273 129M1339 129L1340 130L1339 129M1372 129L1373 130L1372 129M263 130L264 131L263 130M880 130L881 131L880 130M1031.67 130.333L1032.33 130.667L1031.67 130.333M1212 130L1213 131L1212 130M1241.33 130.667L1241.67 131.333L1241.33 130.667M1276 130L1277 131L1276 130M633 131L634 132L633 131M881 131L882 132L881 131M1027.67 131.333L1028.33 131.667L1027.67 131.333M1076 131L1077 132L1076 131M1117 131L1118 132L1117 131M1146 131L1147 132L1146 131M1279 131L1280 132L1279 131M1336 131L1337 132L1336 131M632 132L633 133L632 132M1021 132L1021 133L1024 133L1021 132M1075 132L1076 133L1075 132M1282 132L1283 133L1282 132M1334 132L1335 133L1334 132M1371 132L1372 133L1371 132M631 133L632 134L631 133M1011 133L1011 134L1017 134L1011 133M1074 133L1075 134L1074 133M1116 133L1117 134L1116 133M1213 133L1214 134L1213 133M1242 133L1243 134L1242 133M1285.67 133.333L1286.33 133.667L1285.67 133.333M1331 133L1332 134L1331 133M630 134L631 135L630 134M767 134L767 157L768 157L767 134M883 134L884 135L883 134M1073 134L1074 135L1073 134M1145 134L1146 135L1145 134M1290.67 134.333L1291.33 134.667L1290.67 134.333M1328.67 134.333L1329.33 134.667L1328.67 134.333M1370 134L1371 135L1370 134M1072 135L1073 136L1072 135M1214 135L1215 136L1214 135M1243.33 135.667L1243.67 136.333L1243.33 135.667M1295 135L1295 136L1299 136L1295 135M1323.67 135.333L1324.33 135.667L1323.67 135.333M1369 135L1370 136L1369 135M517 136L518 137L517 136M1071 136L1072 137L1071 136M1115 136L1116 137L1115 136M1144 136L1145 137L1144 136M1305 136L1305 137L1318 137L1305 136M518 137L519 138L518 137M885 137L886 138L885 137M1368 137L1369 138L1368 137M625 138L626 139L625 138M886 138L887 139L886 138M1114.33 138.667L1114.67 139.333L1114.33 138.667M1215 138L1216 139L1215 138M1244 138L1245 139L1244 138M93 139L94 140L93 139M166 139L167 140L166 139M348 139L349 140L348 139M521 139L522 140L521 139M593 139L594 140L593 139M1067 139L1068 140L1067 139M1143 139L1144 140L1143 139M91 140L92 141L91 140M133 140L134 141L133 140M164 140L165 141L164 140M204 140L205 141L204 140M272 140L273 141L272 140M315 140L316 141L315 140M346 140L347 141L346 140M388 140L389 141L388 140M1066 140L1067 141L1066 140M1216.33 140.667L1216.67 141.333L1216.33 140.667M1245.33 140.667L1245.67 141.333L1245.33 140.667M1366 140L1367 141L1366 140M88 141L89 142L88 141M161 141L162 142L161 141M207 141L208 142L207 141M318 141L319 142L318 141M343 141L344 142L343 141M621 141L622 142L621 141M888 141L889 142L888 141M1113 141L1114 142L1113 141M1142.33 141.667L1142.67 142.333L1142.33 141.667M1365 141L1366 142L1365 141M137 142L137 152L138 152L137 142M208 142L208 152L209 152L208 142M319 142L319 152L320 152L319 142M392 142L392 152L393 152L392 142M619 142L620 143L619 142M1063 142L1064 143L1063 142M1364 142L1365 143L1364 142M527 143L528 144L527 143M1061 143L1062 144L1061 143M1112.33 143.667L1112.67 144.333L1112.33 143.667M1217 143L1218 144L1217 143M1246 143L1247 144L1246 143M1363 143L1364 144L1363 143M529 144L530 145L529 144M890 144L891 145L890 144M1060 144L1061 145L1060 144M1141 144L1142 145L1141 144M1362 144L1363 145L1362 144M531 145L532 146L531 145M557 145L558 146L557 145M614 145L615 146L614 145M891 145L892 146L891 145M1058 145L1059 146L1058 145M1247.33 145.667L1247.67 146.333L1247.33 145.667M1361 145L1362 146L1361 145M533 146L534 147L533 146M1056 146L1057 147L1056 146M1111 146L1112 147L1111 146M1218 146L1219 147L1218 146M1360 146L1361 147L1360 146M535 147L536 148L535 147M892 147L893 148L892 147M1054 147L1055 148L1054 147M1140 147L1141 148L1140 147M538 148L539 149L538 148M607 148L608 149L607 148M893 148L894 149L893 148M1051.67 148.333L1052.33 148.667L1051.67 148.333M1110.33 148.667L1110.67 149.333L1110.33 148.667M1219 148L1220 149L1219 148M1248 148L1249 149L1248 148M1357 148L1358 149L1357 148M541 149L542 150L541 149M604 149L605 150L604 149M1049 149L1050 150L1049 149M1139 149L1140 150L1139 149M1356 149L1357 150L1356 149M544 150L545 151L544 150M601 150L602 151L601 150M1046 150L1047 151L1046 150M1268 150L1269 151L1268 150M1354 150L1355 151L1354 150M548 151L549 152L548 151M596.667 151.333L597.333 151.667L596.667 151.333M895 151L896 152L895 151M1043.67 151.333L1044.33 151.667L1043.67 151.333M1109 151L1110 152L1109 151M1220 151L1221 152L1220 151M1249 151L1250 152L1249 151M1352 151L1353 152L1352 151M552.667 152.333L553.333 152.667L552.667 152.333M591.667 152.333L592.333 152.667L591.667 152.333M896 152L897 153L896 152M1039.67 152.333L1040.33 152.667L1039.67 152.333M1138 152L1139 153L1138 152M1272 152L1273 153L1272 152M1350 152L1351 153L1350 152M559.667 153.333L560.333 153.667L559.667 153.333M1035.67 153.333L1036.33 153.667L1035.67 153.333M1108.33 153.667L1108.67 154.333L1108.33 153.667M1221.33 153.667L1221.67 154.333L1221.33 153.667M1250 153L1251 154L1250 153M1274 153L1275 154L1274 153M1348 153L1349 154L1348 153M587.333 154.667L587.667 155.333L587.333 154.667M897 154L898 155L897 154M1030 154L1030 155L1033 155L1030 154M1137.33 154.667L1137.67 155.333L1137.33 154.667M1276.67 154.333L1277.33 154.667L1276.67 154.333M1345.67 154.333L1346.33 154.667L1345.67 154.333M561 155L562 156L561 155M898 155L899 156L898 155M1023 155L1023 156L1027 156L1023 155M1279.67 155.333L1280.33 155.667L1279.67 155.333M1343 155L1344 156L1343 155M1011 156L1011 157L1018 157L1011 156M1107 156L1108 157L1107 156M1222 156L1223 157L1222 156M1251 156L1252 157L1251 156M1283.67 156.333L1284.33 156.667L1283.67 156.333M1339.67 156.333L1340.33 156.667L1339.67 156.333M1287 157L1287 158L1290 158L1287 157M1335.67 157.333L1336.33 157.667L1335.67 157.333M1293 158L1293 159L1296 159L1293 158M1329 158L1329 159L1332 159L1329 158M1300 159L1300 160L1307 160L1300 159M1317 159L1317 160L1324 160L1317 159z"/>
<path style="fill:#030302; stroke:none;" d="M0 161L0 162L1460 162C1449.97 157.792 1432.9 161 1422 161L1336 161L1037 161L0 161z"/>
</svg>
